<?xml version="1.0" encoding="utf-8"?>
<!-- Generator: Adobe Illustrator 21.0.0, SVG Export Plug-In . SVG Version: 6.00 Build 0)  -->
<svg fill="red" version="1.1" id="图层_1" xmlns="http://www.w3.org/2000/svg" xmlns:xlink="http://www.w3.org/1999/xlink" x="0" y="0"
	 viewBox="0 0 1000 1000" enable-background="new 0 0 1000 1000" xml:space="preserve">
	 <!-- <image xlink:href="../static/img/icon.png" src="../static/img/icon.png" width="20" height="20" x="0" y="0" /> -->
<g id="j03_x5F_wall_x24_0_x24_wall_x5F_glass">
</g>
<g id="j03_x5F_wall_x24_0_x24_WALL">
</g>
<g id="j03_x5F_wall_x24_0_x24_A-WALL-STUD">
</g>
<g id="j03_x5F_wall_x24_0_x24_glass">
</g>
<g id="jlq_x5F_rf_x5F_patt_x24_0_x24_dote">
</g>
<g id="_x30_">
	<g id="LINE_189_">
		<g id="XMLID_1_">
			<g>
				<polygon fill="#E0F0E9" points="723.83,247.84 749.77,274.23 733.18,290.53 720.37,303.13 704.66,287.15 704.66,272.61 				"/>
				<polygon fill="#E0F0E9" points="276.46,768.07 276.46,815.86 263.55,815.86 265.87,768.07 				"/>
				<polygon fill="#E0F0E9" points="301.13,180.71 301.13,196.51 282.42,212.26 267.42,183.11 276.81,180.71 				"/>
				<polygon fill="#E0F0E9" points="563.25,300.92 564.54,301.51 555.14,322.02 544.89,317.32 542.97,316.44 552.36,295.93 				"/>
				<polygon fill="#E0F0E9" points="504.37,749.82 504.13,748.43 504.14,748.43 501.77,734.53 500.35,726.19 512.85,724.06 
					516.17,743.52 516.19,743.62 516.88,747.69 				"/>
				<polygon fill="#E0F0E9" points="472.58,739.5 475.19,754.79 452.26,758.69 430.02,762.48 426.07,738.85 471.16,731.16 				"/>
				<polygon fill="#E0F0E9" points="517.92,303.42 511.36,317.74 492.68,309.18 490.22,314.55 466.65,303.64 475.63,284.04 				"/>
				<polygon fill="#E0F0E9" points="527.31,282.91 517.92,303.42 475.63,284.04 484.43,264.82 485.02,263.54 505.53,272.93 				"/>
				
					<rect x="746.478" y="275.574" transform="matrix(0.713 -0.7012 0.7012 0.713 7.7293 617.4697)" fill="#D6ECF0" width="23.261" height="47.438"/>
				<polygon fill="#E0F0E9" points="811.64,279.92 783.03,308.05 749.77,274.23 723.83,247.84 744.9,220.63 811.57,279.86 				"/>
				<polygon fill="#E0F0E9" points="578.77,291.36 572.29,305.06 564.54,301.51 563.25,300.92 552.36,295.93 558.67,282.16 				"/>
				<polygon fill="#E0F0E9" points="475.19,754.79 477.5,768.34 454.57,772.25 454.57,772.24 452.26,758.7 452.26,758.69 				"/>
				<polygon fill="#E0F0E9" points="787.78,725.33 742.84,769.32 722.75,746.43 713.82,746.43 713.82,726.89 737.78,726.83 
					737.78,720.56 745.54,720.56 745.54,710.69 737.78,710.69 737.78,701.53 737.78,700.12 761.34,700.12 766.37,704.92 				"/>
				<polygon fill="#E0F0E9" points="830.1,675.5 819.95,689.06 787.78,725.33 766.37,704.92 761.34,700.12 737.78,700.12 
					737.78,663.92 769.8,657.26 796.88,657.26 				"/>
				<polygon fill="#E0F0E9" points="358.51,903.66 369.95,947.43 292.25,965.06 283.22,918.14 				"/>
				<polygon fill="#E0F0E9" points="358.51,903.66 283.22,918.14 275.1,875.92 347.6,861.98 356.16,894.69 				"/>
				<polygon fill="#E0F0E9" points="443.58,843.52 456.64,921.63 383.57,943.77 361.48,859.31 				"/>
				<polygon fill="#E0F0E9" points="560.31,805.35 571.91,873.44 456.64,921.63 443.58,843.52 440.6,825.75 492.08,816.98 
					500.21,815.59 				"/>
				<polygon fill="#E0F0E9" points="571.38,126.21 529.9,212 512.32,203.94 496.17,239.19 495.65,240.33 490.74,251.04 
					485.02,263.54 484.43,264.82 435.41,242.36 491.72,91.34 				"/>
				<polygon fill="#E0F0E9" points="659.59,173.55 622.54,254.43 567.11,229.04 529.9,212 571.38,126.21 				"/>
				<polygon fill="#E0F0E9" points="395.78,57.71 378.93,111.97 328.03,101.21 343.25,42.73 				"/>
				<polygon fill="#E0F0E9" points="343.25,42.73 328.03,101.21 279.8,91.01 292.48,30.78 				"/>
				<polygon fill="#D6ECF0" points="737.78,663.92 737.78,700.12 713.82,700.12 713.82,672.57 713.82,668 				"/>
				<polygon fill="#D6ECF0" points="713.82,726.89 713.82,746.43 685.62,746.43 685.62,701.53 685.62,692.66 685.62,677.37 
					713.82,672.57 713.82,700.12 				"/>
				<rect x="276.81" y="133.7" fill="#D6ECF0" width="24.32" height="47.01"/>
				<rect x="276.46" y="768.07" fill="#D6ECF0" width="24.31" height="47.79"/>
				<polygon fill="#D6ECF0" points="684.43,469.42 684.43,521.58 579.19,521.51 579.33,469.42 				"/>
				<polygon fill="#FBE5EB" points="600.97,301.53 594.66,315.31 572.29,305.06 578.77,291.36 				"/>
				<polygon fill="#FBE5EB" points="533.01,270.47 527.31,282.91 505.53,272.93 511.24,260.46 				"/>
				<polygon fill="#FBE5EB" points="511.24,260.46 505.53,272.93 485.02,263.54 490.74,251.04 				"/>
				<polygon fill="#FBE5EB" points="549.54,742.12 551.85,755.67 551.84,755.67 529.61,759.46 527.3,745.91 				"/>
				<polygon fill="#FBE5EB" points="527.3,745.91 529.61,759.46 506.68,763.37 504.37,749.82 516.88,747.69 				"/>
				<polygon fill="#FBE5EB" points="454.57,772.24 454.57,772.25 450.75,772.9 432.29,776.04 430.02,762.48 452.26,758.69 
					452.26,758.7 				"/>
					
				<polygon fill="#FBE5EB" points="496.17,239.19 512.32,203.94 529.9,212 567.11,229.04 550.97,264.28 495.65,240.33 				"/>
				<polygon fill="#FBE5EB" points="622.54,254.43 619.68,260.69 606.93,288.52 550.97,264.28 567.11,229.04 				"/>
				<polygon fill="#FBE5EB" points="493.93,778.77 500.21,815.59 492.08,816.98 440.6,825.75 434.35,788.35 				"/>
				<polygon fill="#FBE5EB" points="554.13,769.08 560.31,805.35 500.21,815.59 493.93,778.77 				"/>
				<polygon fill="#F2ECDE" points="347.6,861.98 275.1,875.92 263.55,815.86 276.46,815.86 300.77,815.86 300.77,768.07 
					276.46,768.07 265.87,768.07 268.77,756.22 291.7,739.92 447.4,713.39 448.39,719.22 468.54,715.78 471.16,731.16 
					426.07,738.85 430.02,762.48 432.29,776.04 434.35,788.35 440.6,825.75 443.58,843.52 361.48,859.31 				"/>
				<polygon fill="#F2ECDE" points="715.23,759.12 715.23,780.33 571.91,873.44 560.31,805.35 554.13,769.08 551.85,755.67 
					549.54,742.12 527.3,745.91 516.88,747.69 516.19,743.62 516.17,743.52 512.85,724.06 500.35,726.19 497.72,710.8 
					518.57,707.25 517.58,701.44 670.82,675.33 670.82,701.53 670.82,759.12 711.43,759.12 				"/>
				<polygon fill="#F2ECDE" points="622.54,254.43 659.59,173.55 729.75,219.47 693.38,266.45 693.38,291.77 720.73,319.58 
					728.77,311.68 749.21,329.92 728.22,351.24 732.69,357.54 705.57,370.92 670.87,370.92 641.7,370.92 613.09,370.92 
					566.98,349.8 554.5,344.08 556.86,338.58 541.48,331.53 545.69,322.34 543.13,321.17 544.89,317.32 555.14,322.02 
					564.54,301.51 572.29,305.06 594.66,315.31 600.97,301.53 606.93,288.52 619.68,260.69 				"/>
				<polygon fill="#F2ECDE" points="491.72,91.34 435.41,242.36 484.43,264.82 475.63,284.04 466.65,303.64 282.42,212.26 
					301.13,196.51 301.13,180.71 301.13,133.7 276.81,133.7 270.77,133.7 270.72,133.69 279.8,91.01 328.03,101.21 378.93,111.97 
					395.78,57.71 				"/>
			</g>
			<g>
				
					<polyline fill="none" stroke="#808080" stroke-width="0.7087" stroke-linecap="round" stroke-linejoin="round" stroke-miterlimit="10" points="
					266.86,151.81 270.72,133.69 279.8,91.01 				"/>
				
					<polyline fill="none" stroke="#808080" stroke-width="0.7087" stroke-linecap="round" stroke-linejoin="round" stroke-miterlimit="10" points="
					508.87,323.18 511.36,317.74 517.92,303.42 527.31,282.91 533.01,270.47 				"/>
				
					<polyline fill="none" stroke="#808080" stroke-width="0.7087" stroke-linecap="round" stroke-linejoin="round" stroke-miterlimit="10" points="
					534.5,334.92 536.99,329.48 542.97,316.44 552.36,295.93 558.67,282.16 				"/>
				
					<line fill="none" stroke="#808080" stroke-width="0.7087" stroke-linecap="round" stroke-linejoin="round" stroke-miterlimit="10" x1="266.94" y1="151.83" x2="270.77" y2="133.7"/>
				
					<line fill="none" stroke="#808080" stroke-width="0.7087" stroke-linecap="round" stroke-linejoin="round" stroke-miterlimit="10" x1="761.34" y1="700.12" x2="766.37" y2="704.92"/>
				
					<line fill="none" stroke="#808080" stroke-width="0.7087" stroke-linecap="round" stroke-linejoin="round" stroke-miterlimit="10" x1="766.37" y1="704.92" x2="787.78" y2="725.33"/>
				
					<polyline fill="none" stroke="#808080" stroke-width="0.7087" stroke-linecap="round" stroke-linejoin="round" stroke-miterlimit="10" points="
					742.84,769.32 744.26,770.95 744.27,770.96 				"/>
				
					<polyline fill="none" stroke="#808080" stroke-width="0.7087" stroke-linecap="round" stroke-linejoin="round" stroke-miterlimit="10" points="
					270.77,133.7 276.81,133.7 301.13,133.7 				"/>
				
					<line fill="none" stroke="#808080" stroke-width="0.7087" stroke-linecap="round" stroke-linejoin="round" stroke-miterlimit="10" x1="704.66" y1="272.61" x2="723.83" y2="247.84"/>
				
					<line fill="none" stroke="#808080" stroke-width="0.7087" stroke-linecap="round" stroke-linejoin="round" stroke-miterlimit="10" x1="693.38" y1="266.45" x2="729.75" y2="219.47"/>
				
					<line fill="none" stroke="#808080" stroke-width="0.7087" stroke-linecap="round" stroke-linejoin="round" stroke-miterlimit="10" x1="737.78" y1="701.53" x2="737.78" y2="710.69"/>
				
					<line fill="none" stroke="#808080" stroke-width="0.7087" stroke-linecap="round" stroke-linejoin="round" stroke-miterlimit="10" x1="713.82" y1="726.89" x2="737.78" y2="726.83"/>
				
					<line fill="none" stroke="#808080" stroke-width="0.7087" stroke-linecap="round" stroke-linejoin="round" stroke-miterlimit="10" x1="737.78" y1="700.12" x2="713.82" y2="700.12"/>
				
					<line fill="none" stroke="#808080" stroke-width="0.7087" stroke-linecap="round" stroke-linejoin="round" stroke-miterlimit="10" x1="737.78" y1="700.12" x2="761.34" y2="700.12"/>
				
					<polyline fill="none" stroke="#808080" stroke-width="0.7087" stroke-linecap="round" stroke-linejoin="round" stroke-miterlimit="10" points="
					713.82,668 713.82,672.57 713.82,700.12 713.82,726.89 713.82,746.43 				"/>
				
					<line fill="none" stroke="#808080" stroke-width="0.7087" stroke-linecap="round" stroke-linejoin="round" stroke-miterlimit="10" x1="742.84" y1="769.32" x2="722.75" y2="746.43"/>
				
					<polyline fill="none" stroke="#808080" stroke-width="0.7087" stroke-linecap="round" stroke-linejoin="round" stroke-miterlimit="10" points="
					722.75,746.43 713.82,746.43 685.62,746.43 				"/>
				
					<polyline fill="none" stroke="#808080" stroke-width="0.7087" stroke-linecap="round" stroke-linejoin="round" stroke-miterlimit="10" points="
					685.62,746.43 685.62,701.53 685.62,692.66 				"/>
				
					<polyline fill="none" stroke="#808080" stroke-width="0.7087" stroke-linecap="round" stroke-linejoin="round" stroke-miterlimit="10" points="
					685.62,672.81 685.62,677.37 685.62,692.66 				"/>
				
					<line fill="none" stroke="#808080" stroke-width="0.7087" stroke-linecap="round" stroke-linejoin="round" stroke-miterlimit="10" x1="715.23" y1="759.12" x2="715.23" y2="780.33"/>
				
					<polyline fill="none" stroke="#808080" stroke-width="0.7087" stroke-linecap="round" stroke-linejoin="round" stroke-miterlimit="10" points="
					737.78,663.92 737.78,700.12 737.78,701.53 				"/>
				
					<line fill="none" stroke="#808080" stroke-width="0.7087" stroke-linecap="round" stroke-linejoin="round" stroke-miterlimit="10" x1="685.62" y1="677.37" x2="713.82" y2="672.57"/>
				
					<line fill="none" stroke="#808080" stroke-width="0.7087" stroke-linecap="round" stroke-linejoin="round" stroke-miterlimit="10" x1="440.6" y1="825.75" x2="492.08" y2="816.98"/>
				
					<polyline fill="none" stroke="#808080" stroke-width="0.7087" stroke-linecap="round" stroke-linejoin="round" stroke-miterlimit="10" points="
					492.08,816.98 500.21,815.59 560.31,805.35 				"/>
				
					<polyline fill="none" stroke="#808080" stroke-width="0.7087" stroke-linecap="round" stroke-linejoin="round" stroke-miterlimit="10" points="
					549.54,742.12 551.85,755.67 554.13,769.08 560.31,805.35 571.91,873.44 				"/>
				
					<polyline fill="none" stroke="#808080" stroke-width="0.7087" stroke-linecap="round" stroke-linejoin="round" stroke-miterlimit="10" points="
					426.07,738.85 430.02,762.48 432.29,776.04 434.35,788.35 440.6,825.75 443.58,843.52 456.64,921.63 				"/>
				
					<polyline fill="none" stroke="#808080" stroke-width="0.7087" stroke-linecap="round" stroke-linejoin="round" stroke-miterlimit="10" points="
					549.54,742.12 527.3,745.91 516.88,747.69 504.37,749.82 				"/>
				
					<line fill="none" stroke="#808080" stroke-width="0.7087" stroke-linecap="round" stroke-linejoin="round" stroke-miterlimit="10" x1="504.37" y1="749.82" x2="504.13" y2="748.43"/>
				
					<line fill="none" stroke="#808080" stroke-width="0.7087" stroke-linecap="round" stroke-linejoin="round" stroke-miterlimit="10" x1="475.19" y1="754.79" x2="472.58" y2="739.5"/>
				
					<polyline fill="none" stroke="#808080" stroke-width="0.7087" stroke-linecap="round" stroke-linejoin="round" stroke-miterlimit="10" points="
					472.58,739.5 471.16,731.16 468.54,715.78 467.55,709.96 				"/>
				
					<polyline fill="none" stroke="#808080" stroke-width="0.7087" stroke-linecap="round" stroke-linejoin="round" stroke-miterlimit="10" points="
					504.33,749.55 504.14,748.43 501.77,734.53 				"/>
				
					<polyline fill="none" stroke="#808080" stroke-width="0.7087" stroke-linecap="round" stroke-linejoin="round" stroke-miterlimit="10" points="
					501.77,734.53 500.35,726.19 497.72,710.8 496.73,704.99 				"/>
				
					<polyline fill="none" stroke="#808080" stroke-width="0.7087" stroke-linecap="round" stroke-linejoin="round" stroke-miterlimit="10" points="
					516.88,747.69 516.19,743.62 516.17,743.52 512.85,724.06 				"/>
				
					<line fill="none" stroke="#808080" stroke-width="0.7087" stroke-linecap="round" stroke-linejoin="round" stroke-miterlimit="10" x1="512.85" y1="724.06" x2="500.35" y2="726.19"/>
				
					<line fill="none" stroke="#808080" stroke-width="0.7087" stroke-linecap="round" stroke-linejoin="round" stroke-miterlimit="10" x1="471.16" y1="731.16" x2="426.07" y2="738.85"/>
				
					<line fill="none" stroke="#808080" stroke-width="0.7087" stroke-linecap="round" stroke-linejoin="round" stroke-miterlimit="10" x1="529.9" y1="212" x2="512.32" y2="203.94"/>
				
					<line fill="none" stroke="#808080" stroke-width="0.7087" stroke-linecap="round" stroke-linejoin="round" stroke-miterlimit="10" x1="496.17" y1="239.19" x2="512.32" y2="203.94"/>
				
					<polyline fill="none" stroke="#808080" stroke-width="0.7087" stroke-linecap="round" stroke-linejoin="round" stroke-miterlimit="10" points="
					594.66,315.31 600.97,301.53 606.93,288.52 619.68,260.69 				"/>
				
					<polyline fill="none" stroke="#808080" stroke-width="0.7087" stroke-linecap="round" stroke-linejoin="round" stroke-miterlimit="10" points="
					485.02,263.54 505.53,272.93 527.31,282.91 				"/>
				
					<polyline fill="none" stroke="#808080" stroke-width="0.7087" stroke-linecap="round" stroke-linejoin="round" stroke-miterlimit="10" points="
					594.66,315.31 572.29,305.06 564.54,301.51 563.25,300.92 				"/>
				
					<line fill="none" stroke="#808080" stroke-width="0.7087" stroke-linecap="round" stroke-linejoin="round" stroke-miterlimit="10" x1="563.25" y1="300.92" x2="552.36" y2="295.93"/>
				
					<line fill="none" stroke="#808080" stroke-width="0.7087" stroke-linecap="round" stroke-linejoin="round" stroke-miterlimit="10" x1="564.54" y1="301.51" x2="555.14" y2="322.02"/>
				
					<line fill="none" stroke="#808080" stroke-width="0.7087" stroke-linecap="round" stroke-linejoin="round" stroke-miterlimit="10" x1="544.89" y1="317.32" x2="543.13" y2="321.17"/>
				
					<polyline fill="none" stroke="#808080" stroke-width="0.7087" stroke-linecap="round" stroke-linejoin="round" stroke-miterlimit="10" points="
					542.97,316.44 544.89,317.32 555.14,322.02 				"/>
				
					<line fill="none" stroke="#808080" stroke-width="0.7087" stroke-linecap="round" stroke-linejoin="round" stroke-miterlimit="10" x1="517.92" y1="303.42" x2="475.63" y2="284.04"/>
				
					<polyline fill="none" stroke="#808080" stroke-width="0.7087" stroke-linecap="round" stroke-linejoin="round" stroke-miterlimit="10" points="
					466.61,303.73 466.65,303.64 475.63,284.04 484.43,264.82 				"/>
				
					<line fill="none" stroke="#808080" stroke-width="0.7087" stroke-linecap="round" stroke-linejoin="round" stroke-miterlimit="10" x1="435.41" y1="242.36" x2="484.43" y2="264.82"/>
				
					<polyline fill="none" stroke="#808080" stroke-width="0.7087" stroke-linecap="round" stroke-linejoin="round" stroke-miterlimit="10" points="
					659.59,173.55 622.54,254.43 619.68,260.69 				"/>
				
					<line fill="none" stroke="#808080" stroke-width="0.7087" stroke-linecap="round" stroke-linejoin="round" stroke-miterlimit="10" x1="737.78" y1="710.69" x2="745.54" y2="710.69"/>
				
					<line fill="none" stroke="#808080" stroke-width="0.7087" stroke-linecap="round" stroke-linejoin="round" stroke-miterlimit="10" x1="745.54" y1="710.69" x2="745.54" y2="720.56"/>
				
					<line fill="none" stroke="#808080" stroke-width="0.7087" stroke-linecap="round" stroke-linejoin="round" stroke-miterlimit="10" x1="745.54" y1="720.56" x2="737.78" y2="720.56"/>
				
					<line fill="none" stroke="#808080" stroke-width="0.7087" stroke-linecap="round" stroke-linejoin="round" stroke-miterlimit="10" x1="733.18" y1="290.53" x2="766.44" y2="324.36"/>
				
					<line fill="none" stroke="#808080" stroke-width="0.7087" stroke-linecap="round" stroke-linejoin="round" stroke-miterlimit="10" x1="704.66" y1="287.15" x2="720.37" y2="303.13"/>
				
					<line fill="none" stroke="#808080" stroke-width="0.7087" stroke-linecap="round" stroke-linejoin="round" stroke-miterlimit="10" x1="693.38" y1="291.77" x2="720.73" y2="319.58"/>
				
					<line fill="none" stroke="#808080" stroke-width="0.7087" stroke-linecap="round" stroke-linejoin="round" stroke-miterlimit="10" x1="723.83" y1="247.84" x2="749.77" y2="274.23"/>
				
					<line fill="none" stroke="#808080" stroke-width="0.7087" stroke-linecap="round" stroke-linejoin="round" stroke-miterlimit="10" x1="749.77" y1="274.23" x2="783.03" y2="308.05"/>
				
					<line fill="none" stroke="#808080" stroke-width="0.7087" stroke-linecap="round" stroke-linejoin="round" stroke-miterlimit="10" x1="728.77" y1="311.68" x2="720.73" y2="319.58"/>
				
					<line fill="none" stroke="#808080" stroke-width="0.7087" stroke-linecap="round" stroke-linejoin="round" stroke-miterlimit="10" x1="276.81" y1="180.71" x2="276.81" y2="133.7"/>
				
					<line fill="none" stroke="#808080" stroke-width="0.7087" stroke-linecap="round" stroke-linejoin="round" stroke-miterlimit="10" x1="276.46" y1="768.07" x2="276.46" y2="815.86"/>
				
					<line fill="none" stroke="#808080" stroke-width="0.7087" stroke-linecap="round" stroke-linejoin="round" stroke-miterlimit="10" x1="300.77" y1="768.07" x2="300.77" y2="815.86"/>
				
					<polyline fill="none" stroke="#808080" stroke-width="0.7087" stroke-linecap="round" stroke-linejoin="round" stroke-miterlimit="10" points="
					300.77,815.86 276.46,815.86 263.55,815.86 				"/>
				
					<polyline fill="none" stroke="#808080" stroke-width="0.7087" stroke-linecap="round" stroke-linejoin="round" stroke-miterlimit="10" points="
					300.77,768.07 276.46,768.07 265.87,768.07 				"/>
				
					<line fill="none" stroke="#808080" stroke-width="0.7087" stroke-linecap="round" stroke-linejoin="round" stroke-miterlimit="10" x1="301.13" y1="180.71" x2="301.13" y2="196.51"/>
				
					<line fill="none" stroke="#808080" stroke-width="0.7087" stroke-linecap="round" stroke-linejoin="round" stroke-miterlimit="10" x1="545.69" y1="322.34" x2="541.48" y2="331.53"/>
				
					<line fill="none" stroke="#808080" stroke-width="0.7087" stroke-linecap="round" stroke-linejoin="round" stroke-miterlimit="10" x1="492.68" y1="309.18" x2="511.36" y2="317.74"/>
				
					<line fill="none" stroke="#808080" stroke-width="0.7087" stroke-linecap="round" stroke-linejoin="round" stroke-miterlimit="10" x1="518.57" y1="707.25" x2="497.72" y2="710.8"/>
				
					<line fill="none" stroke="#808080" stroke-width="0.7087" stroke-linecap="round" stroke-linejoin="round" stroke-miterlimit="10" x1="468.54" y1="715.78" x2="448.39" y2="719.22"/>
				
					<line fill="none" stroke="#808080" stroke-width="0.7087" stroke-linecap="round" stroke-linejoin="round" stroke-miterlimit="10" x1="545.69" y1="322.34" x2="543.13" y2="321.17"/>
				
					<line fill="none" stroke="#808080" stroke-width="0.7087" stroke-linecap="round" stroke-linejoin="round" stroke-miterlimit="10" x1="491.72" y1="91.34" x2="435.41" y2="242.36"/>
				
					<line fill="none" stroke="#808080" stroke-width="0.7087" stroke-linecap="round" stroke-linejoin="round" stroke-miterlimit="10" x1="670.82" y1="701.53" x2="685.62" y2="701.53"/>
				
					<line fill="none" stroke="#808080" stroke-width="0.7087" stroke-linecap="round" stroke-linejoin="round" stroke-miterlimit="10" x1="670.82" y1="675.33" x2="670.82" y2="701.53"/>
				
					<line fill="none" stroke="#808080" stroke-width="0.7087" stroke-linecap="round" stroke-linejoin="round" stroke-miterlimit="10" x1="670.82" y1="701.53" x2="670.82" y2="759.12"/>
				
					<line fill="none" stroke="#808080" stroke-width="0.7087" stroke-linecap="round" stroke-linejoin="round" stroke-miterlimit="10" x1="267.42" y1="183.11" x2="276.81" y2="180.71"/>
				
					<line fill="none" stroke="#808080" stroke-width="0.7087" stroke-linecap="round" stroke-linejoin="round" stroke-miterlimit="10" x1="517.58" y1="701.44" x2="518.57" y2="707.25"/>
				
					<line fill="none" stroke="#808080" stroke-width="0.7087" stroke-linecap="round" stroke-linejoin="round" stroke-miterlimit="10" x1="448.39" y1="719.22" x2="447.4" y2="713.39"/>
				
					<polyline fill="none" stroke="#808080" stroke-width="0.7087" stroke-linecap="round" stroke-linejoin="round" stroke-miterlimit="10" points="
					275.1,875.92 347.6,861.98 361.48,859.31 				"/>
				
					<line fill="none" stroke="#808080" stroke-width="0.7087" stroke-linecap="round" stroke-linejoin="round" stroke-miterlimit="10" x1="361.48" y1="859.31" x2="443.58" y2="843.52"/>
				
					<line fill="none" stroke="#808080" stroke-width="0.7087" stroke-linecap="round" stroke-linejoin="round" stroke-miterlimit="10" x1="283.22" y1="918.14" x2="358.51" y2="903.66"/>
				
					<polyline fill="none" stroke="#808080" stroke-width="0.7087" stroke-linecap="round" stroke-linejoin="round" stroke-miterlimit="10" points="
					369.95,947.43 358.51,903.66 356.16,894.69 				"/>
				
					<polyline fill="none" stroke="#808080" stroke-width="0.7087" stroke-linecap="round" stroke-linejoin="round" stroke-miterlimit="10" points="
					356.16,894.69 347.6,861.98 347.6,861.97 				"/>
				
					<line fill="none" stroke="#808080" stroke-width="0.7087" stroke-linecap="round" stroke-linejoin="round" stroke-miterlimit="10" x1="383.57" y1="943.77" x2="361.48" y2="859.31"/>
				
					<line fill="none" stroke="#808080" stroke-width="0.7087" stroke-linecap="round" stroke-linejoin="round" stroke-miterlimit="10" x1="704.66" y1="272.61" x2="704.66" y2="287.15"/>
				
					<line fill="none" stroke="#808080" stroke-width="0.7087" stroke-linecap="round" stroke-linejoin="round" stroke-miterlimit="10" x1="693.38" y1="266.45" x2="693.38" y2="291.77"/>
				
					<line fill="none" stroke="#808080" stroke-width="0.7087" stroke-linecap="round" stroke-linejoin="round" stroke-miterlimit="10" x1="670.82" y1="759.12" x2="711.43" y2="759.12"/>
				
					<line fill="none" stroke="#808080" stroke-width="0.7087" stroke-linecap="round" stroke-linejoin="round" stroke-miterlimit="10" x1="715.23" y1="759.12" x2="711.43" y2="759.12"/>
				
					<line fill="none" stroke="#808080" stroke-width="0.7087" stroke-linecap="round" stroke-linejoin="round" stroke-miterlimit="10" x1="579.33" y1="469.42" x2="579.19" y2="521.51"/>
				
					<line fill="none" stroke="#808080" stroke-width="0.7087" stroke-linecap="round" stroke-linejoin="round" stroke-miterlimit="10" x1="579.19" y1="521.51" x2="684.43" y2="521.58"/>
				
					<line fill="none" stroke="#808080" stroke-width="0.7087" stroke-linecap="round" stroke-linejoin="round" stroke-miterlimit="10" x1="684.43" y1="521.58" x2="684.43" y2="469.42"/>
				
					<line fill="none" stroke="#808080" stroke-width="0.7087" stroke-linecap="round" stroke-linejoin="round" stroke-miterlimit="10" x1="579.33" y1="469.42" x2="684.43" y2="469.42"/>
				
					<line fill="none" stroke="#808080" stroke-width="0.7087" stroke-linecap="round" stroke-linejoin="round" stroke-miterlimit="10" x1="490.22" y1="314.55" x2="492.68" y2="309.18"/>
				
					<line fill="none" stroke="#808080" stroke-width="0.7087" stroke-linecap="round" stroke-linejoin="round" stroke-miterlimit="10" x1="556.86" y1="338.58" x2="554.5" y2="344.08"/>
				
					<polyline fill="none" stroke="#808080" stroke-width="0.7087" stroke-linecap="round" stroke-linejoin="round" stroke-miterlimit="10" points="
					556.86,338.58 541.48,331.53 536.99,329.48 				"/>
				
					<line fill="none" stroke="#808080" stroke-width="0.7087" stroke-linecap="round" stroke-linejoin="round" stroke-miterlimit="10" x1="276.81" y1="180.71" x2="301.13" y2="180.71"/>
				
					<line fill="none" stroke="#808080" stroke-width="0.7087" stroke-linecap="round" stroke-linejoin="round" stroke-miterlimit="10" x1="737.78" y1="720.56" x2="737.78" y2="726.83"/>
				
					<line fill="none" stroke="#808080" stroke-width="0.8504" stroke-linecap="round" stroke-linejoin="round" stroke-miterlimit="10" x1="493.93" y1="778.77" x2="500.21" y2="815.59"/>
				
					<line fill="none" stroke="#808080" stroke-width="0.8504" stroke-linecap="round" stroke-linejoin="round" stroke-miterlimit="10" x1="506.68" y1="763.37" x2="504.37" y2="749.82"/>
				
					<line fill="none" stroke="#808080" stroke-width="0.8504" stroke-linecap="round" stroke-linejoin="round" stroke-miterlimit="10" x1="529.61" y1="759.46" x2="527.3" y2="745.91"/>
				
					<polyline fill="none" stroke="#808080" stroke-width="0.8504" stroke-linecap="round" stroke-linejoin="round" stroke-miterlimit="10" points="
					506.68,763.37 529.61,759.46 551.84,755.67 				"/>
				
					<line fill="none" stroke="#808080" stroke-width="0.8504" stroke-linecap="round" stroke-linejoin="round" stroke-miterlimit="10" x1="477.5" y1="768.34" x2="475.19" y2="754.79"/>
				
					<line fill="none" stroke="#808080" stroke-width="0.8504" stroke-linecap="round" stroke-linejoin="round" stroke-miterlimit="10" x1="454.57" y1="772.24" x2="452.26" y2="758.7"/>
				
					<line fill="none" stroke="#808080" stroke-width="0.8504" stroke-linecap="round" stroke-linejoin="round" stroke-miterlimit="10" x1="550.97" y1="264.28" x2="567.11" y2="229.04"/>
				
					<polyline fill="none" stroke="#808080" stroke-width="0.8504" stroke-linecap="round" stroke-linejoin="round" stroke-miterlimit="10" points="
					511.25,260.44 511.24,260.46 505.53,272.93 				"/>
				
					<polyline fill="none" stroke="#808080" stroke-width="0.8504" stroke-linecap="round" stroke-linejoin="round" stroke-miterlimit="10" points="
					533.01,270.47 511.24,260.46 490.74,251.04 				"/>
				
					<line fill="none" stroke="#808080" stroke-width="0.8504" stroke-linecap="round" stroke-linejoin="round" stroke-miterlimit="10" x1="558.67" y1="282.16" x2="578.77" y2="291.36"/>
				
					<line fill="none" stroke="#808080" stroke-width="0.8504" stroke-linecap="round" stroke-linejoin="round" stroke-miterlimit="10" x1="450.75" y1="772.9" x2="432.29" y2="776.04"/>
				
					<polyline fill="none" stroke="#808080" stroke-width="0.8504" stroke-linecap="round" stroke-linejoin="round" stroke-miterlimit="10" points="
					477.5,768.34 454.57,772.25 450.75,772.9 				"/>
				
					<path fill="none" stroke="#CC9966" stroke-width="0.7087" stroke-linecap="round" stroke-linejoin="round" stroke-miterlimit="10" d="
					M145.28,0c-1.96,45.4,5.05,90.74,20.66,133.43"/>
				
					<path fill="none" stroke="#CC9966" stroke-width="0.7087" stroke-linecap="round" stroke-linejoin="round" stroke-miterlimit="10" d="
					M191.13,212.69c-8.15-26.5-16.55-52.92-25.19-79.26"/>
				
					<line fill="none" stroke="#CC9966" stroke-width="0.7087" stroke-linecap="round" stroke-linejoin="round" stroke-miterlimit="10" x1="191.13" y1="212.69" x2="270.01" y2="418.45"/>
				
					<path fill="none" stroke="#CC9966" stroke-width="0.7087" stroke-linecap="round" stroke-linejoin="round" stroke-miterlimit="10" d="
					M255.63,574.88c28.82-47.08,34.14-104.88,14.38-156.43"/>
				
					<line fill="none" stroke="#CC9966" stroke-width="0.7087" stroke-linecap="round" stroke-linejoin="round" stroke-miterlimit="10" x1="255.63" y1="574.88" x2="122.83" y2="791.81"/>
				
					<path fill="none" stroke="#CC9966" stroke-width="0.7087" stroke-linecap="round" stroke-linejoin="round" stroke-miterlimit="10" d="
					M122.83,791.81c-8.29,13.55-15.26,27.87-20.81,42.76"/>
				
					<path fill="none" stroke="#CC9966" stroke-width="0.7087" stroke-linecap="round" stroke-linejoin="round" stroke-miterlimit="10" d="
					M102.02,834.57c-7.88,21.17-12.13,43.53-12.55,66.12"/>
				
					<line fill="none" stroke="#CC9966" stroke-width="0.7087" stroke-linecap="round" stroke-linejoin="round" stroke-miterlimit="10" x1="89.47" y1="900.69" x2="87.59" y2="1000"/>
				
					<path fill="none" stroke="#CC9966" stroke-width="0.7087" stroke-linecap="round" stroke-linejoin="round" stroke-miterlimit="10" stroke-dasharray="0.0212,0.01" d="
					M87.59,1000c117.36-1.85,233.8-21.14,345.49-57.21"/>
				
					<path fill="none" stroke="#CC9966" stroke-width="0.7087" stroke-linecap="round" stroke-linejoin="round" stroke-miterlimit="10" stroke-dasharray="0.0212,0.01" d="
					M433.08,942.79c93.88-27.9,182.05-72.24,260.42-130.96"/>
				
					<path fill="none" stroke="#CC9966" stroke-width="0.7087" stroke-linecap="round" stroke-linejoin="round" stroke-miterlimit="10" stroke-dasharray="0.0212,0.01" d="
					M832.5,676.82c5.54-7.14,10.94-14.4,16.21-21.76"/>
				
					<path fill="none" stroke="#CC9966" stroke-width="0.7087" stroke-linecap="round" stroke-linejoin="round" stroke-miterlimit="10" stroke-dasharray="0.0212,0.01" d="
					M693.5,811.83c17.57-12.84,34.51-26.48,50.76-40.88c32.25-28.54,61.79-60.05,88.23-94.13"/>
				
					<path fill="none" stroke="#CC9966" stroke-width="0.7087" stroke-linecap="round" stroke-linejoin="round" stroke-miterlimit="10" stroke-dasharray="0.0212,0.01" d="
					M848.71,655.06c27.51-41.01,47.51-86.59,59.08-134.6"/>
				
					<path fill="none" stroke="#CC9966" stroke-width="0.7087" stroke-linecap="round" stroke-linejoin="round" stroke-miterlimit="10" stroke-dasharray="0.0212,0.01" d="
					M907.79,520.46c10.5-48.51,2.96-99.19-21.21-142.54"/>
				
					<path fill="none" stroke="#CC9966" stroke-width="0.7087" stroke-linecap="round" stroke-linejoin="round" stroke-miterlimit="10" stroke-dasharray="0.0212,0.01" d="
					M886.58,377.92c-19.7-36.25-44.9-69.22-74.7-97.75"/>
				
					<path fill="none" stroke="#CC9966" stroke-width="0.7087" stroke-linecap="round" stroke-linejoin="round" stroke-miterlimit="10" stroke-dasharray="0.0212,0.01" d="
					M811.57,279.86c-20.88-21.21-43.15-41-66.67-59.23"/>
				
					<path fill="none" stroke="#CC9966" stroke-width="0.7087" stroke-linecap="round" stroke-linejoin="round" stroke-miterlimit="10" stroke-dasharray="0.0212,0.01" d="
					M811.88,280.17c-0.08-0.08-0.16-0.17-0.24-0.25"/>
				
					<path fill="none" stroke="#CC9966" stroke-width="0.7087" stroke-linecap="round" stroke-linejoin="round" stroke-miterlimit="10" stroke-dasharray="0.0212,0.01" d="
					M744.9,220.63C650.09,151.56,545.1,97.67,433.7,60.92"/>
				
					<path fill="none" stroke="#CC9966" stroke-width="0.7087" stroke-linecap="round" stroke-linejoin="round" stroke-miterlimit="10" stroke-dasharray="0.0212,0.01" d="
					M433.7,60.92c-45.73-15.97-92.38-29.04-139.66-39.13C245.03,11.31,195.34,4.03,145.28,0"/>
				
					<polyline fill="none" stroke="#808080" stroke-width="0.7087" stroke-linecap="round" stroke-linejoin="round" stroke-miterlimit="10" points="
					430.02,762.48 452.26,758.69 475.19,754.79 				"/>
				
					<line fill="none" stroke="#808080" stroke-width="0.7087" stroke-linecap="round" stroke-linejoin="round" stroke-miterlimit="10" x1="578.77" y1="291.36" x2="572.29" y2="305.06"/>
				
					<line fill="none" stroke="#808080" stroke-width="0.7087" stroke-linecap="round" stroke-linejoin="round" stroke-miterlimit="10" x1="328.03" y1="101.21" x2="279.8" y2="91.01"/>
				
					<line fill="none" stroke="#808080" stroke-width="0.7087" stroke-linecap="round" stroke-linejoin="round" stroke-miterlimit="10" x1="279.8" y1="91.01" x2="292.48" y2="30.78"/>
				
					<line fill="none" stroke="#808080" stroke-width="0.7087" stroke-linecap="round" stroke-linejoin="round" stroke-miterlimit="10" x1="292.48" y1="30.78" x2="343.25" y2="42.73"/>
				
					<line fill="none" stroke="#808080" stroke-width="0.7087" stroke-linecap="round" stroke-linejoin="round" stroke-miterlimit="10" x1="343.25" y1="42.73" x2="395.78" y2="57.71"/>
				
					<line fill="none" stroke="#808080" stroke-width="0.7087" stroke-linecap="round" stroke-linejoin="round" stroke-miterlimit="10" x1="395.78" y1="57.71" x2="378.93" y2="111.97"/>
				
					<line fill="none" stroke="#808080" stroke-width="0.7087" stroke-linecap="round" stroke-linejoin="round" stroke-miterlimit="10" x1="378.93" y1="111.97" x2="328.03" y2="101.21"/>
				
					<line fill="none" stroke="#808080" stroke-width="0.7087" stroke-linecap="round" stroke-linejoin="round" stroke-miterlimit="10" x1="328.03" y1="101.21" x2="343.25" y2="42.73"/>
				
					<line fill="none" stroke="#808080" stroke-width="0.7087" stroke-linecap="round" stroke-linejoin="round" stroke-miterlimit="10" x1="508.87" y1="323.18" x2="490.22" y2="314.55"/>
				
					<line fill="none" stroke="#808080" stroke-width="0.7087" stroke-linecap="round" stroke-linejoin="round" stroke-miterlimit="10" x1="490.22" y1="314.55" x2="466.65" y2="303.64"/>
				
					<line fill="none" stroke="#808080" stroke-width="0.7087" stroke-linecap="round" stroke-linejoin="round" stroke-miterlimit="10" x1="466.65" y1="303.64" x2="282.42" y2="212.26"/>
				
					<line fill="none" stroke="#808080" stroke-width="0.7087" stroke-linecap="round" stroke-linejoin="round" stroke-miterlimit="10" x1="811.88" y1="280.17" x2="783.03" y2="308.05"/>
				
					<line fill="none" stroke="#808080" stroke-width="0.7087" stroke-linecap="round" stroke-linejoin="round" stroke-miterlimit="10" x1="783.03" y1="308.05" x2="766.44" y2="324.36"/>
				
					<polyline fill="none" stroke="#808080" stroke-width="0.7087" stroke-linecap="round" stroke-linejoin="round" stroke-miterlimit="10" points="
					755.34,335.27 755.27,335.33 732.69,357.54 				"/>
				
					<line fill="none" stroke="#808080" stroke-width="0.7087" stroke-linecap="round" stroke-linejoin="round" stroke-miterlimit="10" x1="554.5" y1="344.08" x2="534.5" y2="334.92"/>
				
					<line fill="none" stroke="#808080" stroke-width="0.7087" stroke-linecap="round" stroke-linejoin="round" stroke-miterlimit="10" x1="534.5" y1="334.92" x2="508.87" y2="323.18"/>
				
					<line fill="none" stroke="#808080" stroke-width="0.7087" stroke-linecap="round" stroke-linejoin="round" stroke-miterlimit="10" x1="266.94" y1="151.83" x2="267.42" y2="183.11"/>
				
					<line fill="none" stroke="#808080" stroke-width="0.7087" stroke-linecap="round" stroke-linejoin="round" stroke-miterlimit="10" x1="267.42" y1="183.11" x2="282.42" y2="212.26"/>
				
					<line fill="none" stroke="#808080" stroke-width="0.7087" stroke-linecap="round" stroke-linejoin="round" stroke-miterlimit="10" x1="659.59" y1="173.55" x2="571.38" y2="126.21"/>
				
					<line fill="none" stroke="#808080" stroke-width="0.7087" stroke-linecap="round" stroke-linejoin="round" stroke-miterlimit="10" x1="395.78" y1="57.71" x2="491.72" y2="91.34"/>
				
					<line fill="none" stroke="#808080" stroke-width="0.7087" stroke-linecap="round" stroke-linejoin="round" stroke-miterlimit="10" x1="491.72" y1="91.34" x2="571.38" y2="126.21"/>
				
					<line fill="none" stroke="#808080" stroke-width="0.7087" stroke-linecap="round" stroke-linejoin="round" stroke-miterlimit="10" x1="783.03" y1="308.05" x2="811.64" y2="279.92"/>
				
					<polyline fill="none" stroke="#808080" stroke-width="0.7087" stroke-linecap="round" stroke-linejoin="round" stroke-miterlimit="10" points="
					811.64,279.92 811.57,279.86 744.9,220.63 				"/>
				
					<line fill="none" stroke="#808080" stroke-width="0.7087" stroke-linecap="round" stroke-linejoin="round" stroke-miterlimit="10" x1="529.9" y1="212" x2="567.11" y2="229.04"/>
				
					<line fill="none" stroke="#808080" stroke-width="0.7087" stroke-linecap="round" stroke-linejoin="round" stroke-miterlimit="10" x1="571.38" y1="126.21" x2="529.9" y2="212"/>
				
					<line fill="none" stroke="#808080" stroke-width="0.7087" stroke-linecap="round" stroke-linejoin="round" stroke-miterlimit="10" x1="554.5" y1="344.08" x2="566.98" y2="349.8"/>
				
					<line fill="none" stroke="#808080" stroke-width="0.7087" stroke-linecap="round" stroke-linejoin="round" stroke-miterlimit="10" x1="566.98" y1="349.8" x2="613.09" y2="370.92"/>
				
					<line fill="none" stroke="#808080" stroke-width="0.7087" stroke-linecap="round" stroke-linejoin="round" stroke-miterlimit="10" x1="613.09" y1="370.92" x2="641.7" y2="370.92"/>
				
					<line fill="none" stroke="#808080" stroke-width="0.7087" stroke-linecap="round" stroke-linejoin="round" stroke-miterlimit="10" x1="641.7" y1="370.92" x2="670.87" y2="370.92"/>
				
					<line fill="none" stroke="#808080" stroke-width="0.7087" stroke-linecap="round" stroke-linejoin="round" stroke-miterlimit="10" x1="670.87" y1="370.92" x2="705.57" y2="370.92"/>
				
					<line fill="none" stroke="#808080" stroke-width="0.7087" stroke-linecap="round" stroke-linejoin="round" stroke-miterlimit="10" x1="705.57" y1="370.92" x2="732.69" y2="357.54"/>
				
					<line fill="none" stroke="#808080" stroke-width="0.7087" stroke-linecap="round" stroke-linejoin="round" stroke-miterlimit="10" x1="728.22" y1="351.24" x2="732.69" y2="357.54"/>
				
					<line fill="none" stroke="#808080" stroke-width="0.7087" stroke-linecap="round" stroke-linejoin="round" stroke-miterlimit="10" x1="728.22" y1="351.24" x2="749.21" y2="329.92"/>
				
					<line fill="none" stroke="#808080" stroke-width="0.7087" stroke-linecap="round" stroke-linejoin="round" stroke-miterlimit="10" x1="728.77" y1="311.68" x2="749.21" y2="329.92"/>
				
					<line fill="none" stroke="#808080" stroke-width="0.7087" stroke-linecap="round" stroke-linejoin="round" stroke-miterlimit="10" x1="749.21" y1="329.92" x2="755.21" y2="335.27"/>
				
					<line fill="none" stroke="#808080" stroke-width="0.7087" stroke-linecap="round" stroke-linejoin="round" stroke-miterlimit="10" x1="755.21" y1="335.27" x2="766.44" y2="324.36"/>
				
					<polyline fill="none" stroke="#808080" stroke-width="0.7087" stroke-linecap="round" stroke-linejoin="round" stroke-miterlimit="10" points="
					720.37,303.13 733.18,290.53 749.77,274.23 				"/>
				
					<line fill="none" stroke="#808080" stroke-width="0.7087" stroke-linecap="round" stroke-linejoin="round" stroke-miterlimit="10" x1="729.75" y1="219.47" x2="659.59" y2="173.55"/>
				
					<polyline fill="none" stroke="#808080" stroke-width="0.7087" stroke-linecap="round" stroke-linejoin="round" stroke-miterlimit="10" points="
					496.17,239.19 495.65,240.33 490.74,251.04 				"/>
				
					<line fill="none" stroke="#808080" stroke-width="0.7087" stroke-linecap="round" stroke-linejoin="round" stroke-miterlimit="10" x1="490.74" y1="251.04" x2="485.02" y2="263.54"/>
				
					<line fill="none" stroke="#808080" stroke-width="0.7087" stroke-linecap="round" stroke-linejoin="round" stroke-miterlimit="10" x1="485.02" y1="263.54" x2="484.43" y2="264.82"/>
				
					<line fill="none" stroke="#808080" stroke-width="0.7087" stroke-linecap="round" stroke-linejoin="round" stroke-miterlimit="10" x1="578.77" y1="291.36" x2="600.97" y2="301.53"/>
				
					<line fill="none" stroke="#808080" stroke-width="0.7087" stroke-linecap="round" stroke-linejoin="round" stroke-miterlimit="10" x1="282.42" y1="212.26" x2="301.13" y2="196.51"/>
				
					<line fill="none" stroke="#808080" stroke-width="0.7087" stroke-linecap="round" stroke-linejoin="round" stroke-miterlimit="10" x1="301.13" y1="133.7" x2="301.13" y2="180.71"/>
				
					<line fill="none" stroke="#808080" stroke-width="0.7087" stroke-linecap="round" stroke-linejoin="round" stroke-miterlimit="10" x1="744.9" y1="220.63" x2="723.83" y2="247.84"/>
				
					<polyline fill="none" stroke="#808080" stroke-width="0.7087" stroke-linecap="round" stroke-linejoin="round" stroke-miterlimit="10" points="
					292.48,30.78 294.04,21.79 294.04,21.78 				"/>
				
					<line fill="none" stroke="#808080" stroke-width="0.7087" stroke-linecap="round" stroke-linejoin="round" stroke-miterlimit="10" x1="737.78" y1="663.92" x2="769.8" y2="657.26"/>
				
					<line fill="none" stroke="#808080" stroke-width="0.7087" stroke-linecap="round" stroke-linejoin="round" stroke-miterlimit="10" x1="737.78" y1="663.92" x2="713.82" y2="668"/>
				
					<line fill="none" stroke="#808080" stroke-width="0.7087" stroke-linecap="round" stroke-linejoin="round" stroke-miterlimit="10" x1="713.82" y1="668" x2="685.62" y2="672.81"/>
				
					<line fill="none" stroke="#808080" stroke-width="0.7087" stroke-linecap="round" stroke-linejoin="round" stroke-miterlimit="10" x1="685.62" y1="672.81" x2="670.82" y2="675.33"/>
				
					<line fill="none" stroke="#808080" stroke-width="0.7087" stroke-linecap="round" stroke-linejoin="round" stroke-miterlimit="10" x1="670.82" y1="675.33" x2="517.58" y2="701.44"/>
				
					<line fill="none" stroke="#808080" stroke-width="0.7087" stroke-linecap="round" stroke-linejoin="round" stroke-miterlimit="10" x1="517.58" y1="701.44" x2="496.73" y2="704.99"/>
				
					<line fill="none" stroke="#808080" stroke-width="0.7087" stroke-linecap="round" stroke-linejoin="round" stroke-miterlimit="10" x1="496.73" y1="704.99" x2="467.55" y2="709.96"/>
				
					<line fill="none" stroke="#808080" stroke-width="0.7087" stroke-linecap="round" stroke-linejoin="round" stroke-miterlimit="10" x1="467.55" y1="709.96" x2="447.4" y2="713.39"/>
				
					<line fill="none" stroke="#808080" stroke-width="0.7087" stroke-linecap="round" stroke-linejoin="round" stroke-miterlimit="10" x1="447.4" y1="713.39" x2="291.7" y2="739.92"/>
				
					<line fill="none" stroke="#808080" stroke-width="0.7087" stroke-linecap="round" stroke-linejoin="round" stroke-miterlimit="10" x1="291.7" y1="739.92" x2="268.77" y2="756.22"/>
				
					<line fill="none" stroke="#808080" stroke-width="0.7087" stroke-linecap="round" stroke-linejoin="round" stroke-miterlimit="10" x1="268.77" y1="756.22" x2="265.87" y2="768.07"/>
				
					<line fill="none" stroke="#808080" stroke-width="0.7087" stroke-linecap="round" stroke-linejoin="round" stroke-miterlimit="10" x1="265.87" y1="768.07" x2="263.55" y2="815.86"/>
				
					<line fill="none" stroke="#808080" stroke-width="0.7087" stroke-linecap="round" stroke-linejoin="round" stroke-miterlimit="10" x1="263.55" y1="815.86" x2="275.1" y2="875.92"/>
				
					<line fill="none" stroke="#808080" stroke-width="0.7087" stroke-linecap="round" stroke-linejoin="round" stroke-miterlimit="10" x1="275.1" y1="875.92" x2="283.22" y2="918.14"/>
				
					<line fill="none" stroke="#808080" stroke-width="0.7087" stroke-linecap="round" stroke-linejoin="round" stroke-miterlimit="10" x1="283.22" y1="918.14" x2="292.25" y2="965.06"/>
				
					<line fill="none" stroke="#808080" stroke-width="0.7087" stroke-linecap="round" stroke-linejoin="round" stroke-miterlimit="10" x1="292.25" y1="965.06" x2="369.95" y2="947.43"/>
				
					<line fill="none" stroke="#808080" stroke-width="0.7087" stroke-linecap="round" stroke-linejoin="round" stroke-miterlimit="10" x1="369.95" y1="947.43" x2="383.57" y2="943.77"/>
				
					<line fill="none" stroke="#808080" stroke-width="0.7087" stroke-linecap="round" stroke-linejoin="round" stroke-miterlimit="10" x1="383.57" y1="943.77" x2="456.64" y2="921.63"/>
				
					<line fill="none" stroke="#808080" stroke-width="0.7087" stroke-linecap="round" stroke-linejoin="round" stroke-miterlimit="10" x1="456.64" y1="921.63" x2="571.91" y2="873.44"/>
				
					<line fill="none" stroke="#808080" stroke-width="0.7087" stroke-linecap="round" stroke-linejoin="round" stroke-miterlimit="10" x1="571.91" y1="873.44" x2="715.23" y2="780.33"/>
				
					<line fill="none" stroke="#808080" stroke-width="0.7087" stroke-linecap="round" stroke-linejoin="round" stroke-miterlimit="10" x1="567.11" y1="229.04" x2="622.54" y2="254.43"/>
				
					<line fill="none" stroke="#808080" stroke-width="0.7087" stroke-linecap="round" stroke-linejoin="round" stroke-miterlimit="10" x1="769.8" y1="657.26" x2="796.88" y2="657.26"/>
				
					<line fill="none" stroke="#808080" stroke-width="0.7087" stroke-linecap="round" stroke-linejoin="round" stroke-miterlimit="10" x1="819.95" y1="689.06" x2="830.1" y2="675.5"/>
				
					<line fill="none" stroke="#808080" stroke-width="0.7087" stroke-linecap="round" stroke-linejoin="round" stroke-miterlimit="10" x1="830.1" y1="675.5" x2="796.88" y2="657.26"/>
				
					<polyline fill="none" stroke="#808080" stroke-width="0.7087" stroke-linecap="round" stroke-linejoin="round" stroke-miterlimit="10" points="
					830.1,675.5 832.49,676.82 832.5,676.82 				"/>
				
					<polyline fill="none" stroke="#808080" stroke-width="0.7087" stroke-linecap="round" stroke-linejoin="round" stroke-miterlimit="10" points="
					434.35,788.35 493.93,778.77 554.13,769.08 				"/>
				
					<line fill="none" stroke="#808080" stroke-width="0.7087" stroke-linecap="round" stroke-linejoin="round" stroke-miterlimit="10" x1="550.97" y1="264.28" x2="606.93" y2="288.52"/>
				
					<line fill="none" stroke="#808080" stroke-width="0.7087" stroke-linecap="round" stroke-linejoin="round" stroke-miterlimit="10" x1="550.97" y1="264.28" x2="495.65" y2="240.33"/>
				
					<line fill="none" stroke="#808080" stroke-width="0.7087" stroke-linecap="round" stroke-linejoin="round" stroke-miterlimit="10" x1="819.95" y1="689.06" x2="787.78" y2="725.33"/>
				
					<line fill="none" stroke="#808080" stroke-width="0.7087" stroke-linecap="round" stroke-linejoin="round" stroke-miterlimit="10" x1="787.78" y1="725.33" x2="742.84" y2="769.32"/>
			</g>
		</g>
	</g>
</g>
</svg>
