<?xml version="1.0" standalone="no"?><!DOCTYPE svg PUBLIC "-//W3C//DTD SVG 1.1//EN" "http://www.w3.org/Graphics/SVG/1.1/DTD/svg11.dtd"><svg t="1509698718523" class="icon" style="" viewBox="0 0 1000 1000" version="1.1" xmlns="http://www.w3.org/2000/svg" p-id="5162" xmlns:xlink="http://www.w3.org/1999/xlink" width="200" height="200"><defs><style type="text/css"></style></defs><path d="M467.75 35c-241.5625 0-437.5 195.9375-437.5 437.5 0 241.625 195.875 437.5 437.5 437.5 241.625 0 437.5-195.875 437.5-437.5C905.25 230.9375 709.375 35 467.75 35zM620.4375 568.8125c6.1875 6.3125 6.1875 16.4375 0 22.625l-34.0625 34.125c-6.4375 6.375-16.5 6.375-22.8125 0L467 529.0625l-96.5625 96.5c-6.25 6.375-16.4375 6.375-22.75 0L313.625 591.4375c-6.25-6.25-6.25-16.375 0-22.625l96.5625-96.5L313.625 375.5625c-6.25-6.25-6.25-16.4375 0-22.625l34.0625-34.0625c6.3125-6.3125 16.5-6.3125 22.75 0l96.5625 96.5625 96.5625-96.5625c6.375-6.3125 16.4375-6.3125 22.8125 0l34.0625 34.0625c6.1875 6.25 6.1875 16.4375 0 22.625L523.875 472.25 620.4375 568.8125z" fill="#d81e06" p-id="5163"></path></svg>